<?xml version="1.0" encoding="UTF-8" standalone="no"?>
<svg
   xmlns:dc="http://purl.org/dc/elements/1.1/"
   xmlns:cc="http://creativecommons.org/ns#"
   xmlns:rdf="http://www.w3.org/1999/02/22-rdf-syntax-ns#"
   xmlns:svg="http://www.w3.org/2000/svg"
   xmlns="http://www.w3.org/2000/svg"
   id="svg98"
   xml:space="preserve"
   viewBox="0 0 550 445"
   height="445"
   width="550"
   version="1.1"><metadata
     id="metadata102"><rdf:RDF><cc:Work
         rdf:about=""><dc:format>image/svg+xml</dc:format><dc:type
           rdf:resource="http://purl.org/dc/dcmitype/StillImage" /></cc:Work></rdf:RDF></metadata><defs
     id="defs4"><style
       id="style2"
       type="text/css">@import url(&quot;https://fonts.googleapis.com/css2?family=Metamorphous:wght@400&quot;);</style></defs><defs
     id="defs6" /><g
     id="icon"
     transform="matrix(0.23 0 0 0.23 219.15 222.5)"><g
       id="g87"
       style=""><g
         id="icon_piece"
         transform="matrix(1 0 0 1 0 0)"><path
           id="path8"
           stroke-linecap="round"
           d="m 512 256 c 0 100.426 -57.827 187.346 -142 229.279 c -3.299 1.643 -6.622 -6.782 -10 -5.279 c -3.292 1.465 -6.637 12.863 -10 14.191 c -29.101 11.494 -60.813 17.809 -94 17.809 c -141.385 0 -256 -114.615 -256 -256 s 114.615 -256 256 -256 s 256 114.615 256 256 z"
           transform=" translate(-256, -256)"
           style="stroke: none; stroke-width: 1; stroke-dasharray: none; stroke-linecap: butt; stroke-dashoffset: 0; stroke-linejoin: miter; stroke-miterlimit: 4; fill: rgb(69,61,131); fill-rule: nonzero; opacity: 1;" /></g><g
         id="g13"
         transform="matrix(1 0 0 1 -21 -45)"><path
           id="path11"
           stroke-linecap="round"
           d="m 420 85 v 252 c 0 8.284 -6.716 15 -15 15 h -340 c -8.284 0 -15 -6.716 -15 -15 v -252 c 0 -8.284 6.716 -15 15 -15 h 340 c 8.284 0 15 6.716 15 15 z"
           transform=" translate(-235, -211)"
           style="stroke: none; stroke-width: 1; stroke-dasharray: none; stroke-linecap: butt; stroke-dashoffset: 0; stroke-linejoin: miter; stroke-miterlimit: 4; fill: rgb(52,147,248); fill-rule: nonzero; opacity: 1;" /></g><g
         id="g17"
         transform="matrix(1 0 0 1 -36 -45)"><path
           id="path15"
           stroke-linecap="round"
           d="m 375 180 h -250 c -8.284 0 -15 -6.716 -15 -15 v -30 c 0 -8.284 6.716 -15 15 -15 h 250 c 8.284 0 15 6.716 15 15 v 30 c 0 8.284 -6.716 15 -15 15 z m -295 157 v -252 c 0 -8.284 6.716 -15 15 -15 h -30 c -8.284 0 -15 6.716 -15 15 v 252 c 0 8.284 6.716 15 15 15 h 30 c -8.284 0 -15 -6.716 -15 -15 z"
           transform=" translate(-220, -211)"
           style="stroke: none; stroke-width: 1; stroke-dasharray: none; stroke-linecap: butt; stroke-dashoffset: 0; stroke-linejoin: miter; stroke-miterlimit: 4; fill: rgb(19,128,226); fill-rule: nonzero; opacity: 1;" /></g><g
         id="g21"
         transform="matrix(1 0 0 1 79.56 59.35)"><path
           id="path19"
           stroke-linecap="round"
           d="m 475.559 189.347 v 164.032 c -24.304 43.8 -61.082 79.721 -105.536 102.968 h -159.464 c -8.284 0 -15 -6.716 -15 -15 v -252 c 0 -8.284 6.716 -15 15 -15 h 250 c 8.284 0 15 6.716 15 15 z"
           transform=" translate(-335.56, -315.35)"
           style="stroke: none; stroke-width: 1; stroke-dasharray: none; stroke-linecap: butt; stroke-dashoffset: 0; stroke-linejoin: miter; stroke-miterlimit: 4; fill: rgb(233,243,254); fill-rule: nonzero; opacity: 1;" /></g><g
         id="g25"
         transform="matrix(1 0 0 1 -95.44 59.35)"><path
           id="path23"
           stroke-linecap="round"
           d="m 215.559 189.347 v 267 h -95 c -8.284 0 -15 -6.716 -15 -15 v -252 c 0 -8.285 6.716 -15 15 -15 h 80 c 8.284 0 15 6.716 15 15 z"
           transform=" translate(-160.56, -315.35)"
           style="stroke: none; stroke-width: 1; stroke-dasharray: none; stroke-linecap: butt; stroke-dashoffset: 0; stroke-linejoin: miter; stroke-miterlimit: 4; fill: rgb(167,208,252); fill-rule: nonzero; opacity: 1;" /></g><g
         id="g29"
         transform="matrix(1 0 0 1 -81.69 59.35)"><path
           id="path27"
           stroke-linecap="round"
           d="m 215.559 189.347 v 267 h -67.5 c -8.284 0 -15 -6.716 -15 -15 v -252 c 0 -8.285 6.716 -15 15 -15 h 52.5 c 8.284 0 15 6.716 15 15 z"
           transform=" translate(-174.31, -315.35)"
           style="stroke: none; stroke-width: 1; stroke-dasharray: none; stroke-linecap: butt; stroke-dashoffset: 0; stroke-linejoin: miter; stroke-miterlimit: 4; fill: rgb(200,226,253); fill-rule: nonzero; opacity: 1;" /></g><g
         id="g33"
         transform="matrix(1 0 0 1 89.56 28.79)"><path
           id="path31"
           stroke-linecap="round"
           d="m 445.559 238.347 v 107.887 h -185 c -8.284 0 -15 -6.715 -15 -15 v -92.887 c 0 -8.285 6.716 -15 15 -15 h 170 c 8.284 0 15 6.716 15 15 z"
           transform=" translate(-345.56, -284.79)"
           style="stroke: none; stroke-width: 1; stroke-dasharray: none; stroke-linecap: butt; stroke-dashoffset: 0; stroke-linejoin: miter; stroke-miterlimit: 4; fill: rgb(200,226,253); fill-rule: nonzero; opacity: 1;" /></g><g
         id="g37"
         transform="matrix(1 0 0 1 34.56 -86.65)"><path
           id="path35"
           stroke-linecap="round"
           d="m 475.559 158.347 v 37 h -370 v -37 c 0 -8.285 6.716 -15 15 -15 h 340 c 8.284 0 15 6.716 15 15 z"
           transform=" translate(-290.56, -169.35)"
           style="stroke: none; stroke-width: 1; stroke-dasharray: none; stroke-linecap: butt; stroke-dashoffset: 0; stroke-linejoin: miter; stroke-miterlimit: 4; fill: rgb(134,190,251); fill-rule: nonzero; opacity: 1;" /></g><g
         id="g41"
         transform="matrix(1 0 0 1 -129.19 -86.65)"><path
           id="path39"
           stroke-linecap="round"
           d="m 148.059 143.347 c -8.284 0 -15 6.715 -15 15 v 37 h -27.5 v -37 c 0 -8.285 6.716 -15 15 -15 z"
           transform=" translate(-126.81, -169.35)"
           style="stroke: none; stroke-width: 1; stroke-dasharray: none; stroke-linecap: butt; stroke-dashoffset: 0; stroke-linejoin: miter; stroke-miterlimit: 4; fill: rgb(118,182,250); fill-rule: nonzero; opacity: 1;" /></g><g
         id="g45"
         transform="matrix(1 0 0 1 -97.69 -86.4)"><path
           id="path43"
           stroke-linecap="round"
           d="m 136.059 169.347 c 0 4.142 -3.358 7.5 -7.5 7.5 s -7.5 -3.358 -7.5 -7.5 s 3.358 -7.5 7.5 -7.5 s 7.5 3.358 7.5 7.5 z m 22.25 -7.25 c -4.142 0 -7.5 3.358 -7.5 7.5 s 3.358 7.5 7.5 7.5 s 7.5 -3.358 7.5 -7.5 s -3.358 -7.5 -7.5 -7.5 z m 29.75 0.25 c -4.142 0 -7.5 3.358 -7.5 7.5 s 3.358 7.5 7.5 7.5 s 7.5 -3.358 7.5 -7.5 s -3.358 -7.5 -7.5 -7.5 z"
           transform=" translate(-158.31, -169.6)"
           style="stroke: none; stroke-width: 1; stroke-dasharray: none; stroke-linecap: butt; stroke-dashoffset: 0; stroke-linejoin: miter; stroke-miterlimit: 4; fill: rgb(52,147,248); fill-rule: nonzero; opacity: 1;" /></g><g
         id="g49"
         transform="matrix(1 0 0 1 -21 -190)"><path
           id="path47"
           stroke-linecap="round"
           d="m 420 55 v 37 h -370 v -37 c 0 -8.284 6.716 -15 15 -15 h 340 c 8.284 0 15 6.716 15 15 z"
           transform=" translate(-235, -66)"
           style="stroke: none; stroke-width: 1; stroke-dasharray: none; stroke-linecap: butt; stroke-dashoffset: 0; stroke-linejoin: miter; stroke-miterlimit: 4; fill: rgb(134,190,251); fill-rule: nonzero; opacity: 1;" /></g><g
         id="g53"
         transform="matrix(1 0 0 1 -183.5 -190)"><path
           id="path51"
           stroke-linecap="round"
           d="m 95 40 c -8.284 0 -15 6.716 -15 15 v 37 h -30 v -37 c 0 -8.284 6.716 -15 15 -15 z"
           transform=" translate(-72.5, -66)"
           style="stroke: none; stroke-width: 1; stroke-dasharray: none; stroke-linecap: butt; stroke-dashoffset: 0; stroke-linejoin: miter; stroke-miterlimit: 4; fill: rgb(118,182,250); fill-rule: nonzero; opacity: 1;" /></g><g
         id="g57"
         transform="matrix(1 0 0 1 -153.25 -189.75)"><path
           id="path55"
           stroke-linecap="round"
           d="m 80.5 66 c 0 4.142 -3.358 7.5 -7.5 7.5 s -7.5 -3.358 -7.5 -7.5 s 3.358 -7.5 7.5 -7.5 s 7.5 3.358 7.5 7.5 z m 22.25 -7.25 c -4.142 0 -7.5 3.358 -7.5 7.5 s 3.358 7.5 7.5 7.5 s 7.5 -3.358 7.5 -7.5 s -3.358 -7.5 -7.5 -7.5 z m 29.75 0.25 c -4.142 0 -7.5 3.358 -7.5 7.5 s 3.358 7.5 7.5 7.5 s 7.5 -3.358 7.5 -7.5 s -3.358 -7.5 -7.5 -7.5 z"
           transform=" translate(-102.75, -66.25)"
           style="stroke: none; stroke-width: 1; stroke-dasharray: none; stroke-linecap: butt; stroke-dashoffset: 0; stroke-linejoin: miter; stroke-miterlimit: 4; fill: rgb(52,147,248); fill-rule: nonzero; opacity: 1;" /></g><g
         id="g61"
         transform="matrix(1 0 0 1 -101 -23.5)"><path
           id="path59"
           stroke-linecap="round"
           d="m 190 232.5 c 0 4.142 -3.358 7.5 -7.5 7.5 h -55 c -4.142 0 -7.5 -3.358 -7.5 -7.5 s 3.358 -7.5 7.5 -7.5 h 55 c 4.142 0 7.5 3.358 7.5 7.5 z"
           transform=" translate(-155, -232.5)"
           style="stroke: none; stroke-width: 1; stroke-dasharray: none; stroke-linecap: butt; stroke-dashoffset: 0; stroke-linejoin: miter; stroke-miterlimit: 4; fill: rgb(118,182,250); fill-rule: nonzero; opacity: 1;" /></g><g
         id="g65"
         transform="matrix(1 0 0 1 -101 82.92)"><path
           id="path63"
           stroke-linecap="round"
           d="m 182.5 332.834 h -55 c -4.142 0 -7.5 -3.358 -7.5 -7.5 c 0 -4.142 3.358 -7.5 7.5 -7.5 h 55 c 4.142 0 7.5 3.358 7.5 7.5 c 0 4.142 -3.358 7.5 -7.5 7.5 z m 7.5 52.5 c 0 -4.142 -3.358 -7.5 -7.5 -7.5 h -55 c -4.142 0 -7.5 3.358 -7.5 7.5 c 0 4.142 3.358 7.5 7.5 7.5 h 55 c 4.142 0 7.5 -3.358 7.5 -7.5 z m -20 -30 c 0 -4.142 -3.358 -7.5 -7.5 -7.5 h -35 c -4.142 0 -7.5 3.358 -7.5 7.5 c 0 4.142 3.358 7.5 7.5 7.5 h 35 c 4.142 0 7.5 -3.358 7.5 -7.5 z m 0 60 c 0 -4.142 -3.358 -7.5 -7.5 -7.5 h -35 c -4.142 0 -7.5 3.358 -7.5 7.5 c 0 4.142 3.358 7.5 7.5 7.5 h 35 c 4.142 0 7.5 -3.358 7.5 -7.5 z m 0 -152.834 c 0 -4.142 -3.358 -7.5 -7.5 -7.5 h -35 c -4.142 0 -7.5 3.358 -7.5 7.5 c 0 4.142 3.358 7.5 7.5 7.5 h 35 c 4.142 0 7.5 -3.358 7.5 -7.5 z"
           transform=" translate(-155, -338.92)"
           style="stroke: none; stroke-width: 1; stroke-dasharray: none; stroke-linecap: butt; stroke-dashoffset: 0; stroke-linejoin: miter; stroke-miterlimit: 4; fill: rgb(134,190,251); fill-rule: nonzero; opacity: 1;" /></g><g
         id="g69"
         transform="matrix(1 0 0 1 89.56 75.42)"><path
           id="path67"
           stroke-linecap="round"
           d="m 372.963 395 h -105.463 c -4.142 0 -7.5 -3.358 -7.5 -7.5 c 0 -4.142 3.358 -7.5 7.5 -7.5 h 105.463 c 4.142 0 7.5 3.358 7.5 7.5 c 0 4.142 -3.358 7.5 -7.5 7.5 z m -72.963 -147.5 c 0 -4.142 -3.358 -7.5 -7.5 -7.5 h -25 c -4.142 0 -7.5 3.358 -7.5 7.5 c 0 4.142 3.358 7.5 7.5 7.5 h 25 c 4.142 0 7.5 -3.358 7.5 -7.5 z m -25 25 c 0 -4.142 -3.358 -7.5 -7.5 -7.5 c -4.142 0 -7.5 3.358 -7.5 7.5 c 0 4.142 3.358 7.5 7.5 7.5 c 4.142 0 7.5 -3.358 7.5 -7.5 z m 105.463 142.834 c 0 -4.142 -3.358 -7.5 -7.5 -7.5 h -105.463 c -4.142 0 -7.5 3.358 -7.5 7.5 c 0 4.142 3.358 7.5 7.5 7.5 h 105.463 c 4.142 0 7.5 -3.358 7.5 -7.5 z m 18.487 -144.212 l -17.583 -14.127 c -5.636 -4.528 -12.648 -6.996 -19.877 -6.996 c -7.424 0 -14.614 2.603 -20.317 7.356 l -42.346 35.288 c -5.703 4.753 -12.893 7.356 -20.317 7.356 h -32.951 v 31.234 c 0 8.284 6.716 15 15 15 h 185 v -72.092 l -21.573 3.554 c -8.9 1.467 -18.004 -0.923 -25.036 -6.573 z"
           transform=" translate(-345.56, -331.42)"
           style="stroke: none; stroke-width: 1; stroke-dasharray: none; stroke-linecap: butt; stroke-dashoffset: 0; stroke-linejoin: miter; stroke-miterlimit: 4; fill: rgb(167,208,252); fill-rule: nonzero; opacity: 1;" /></g><g
         id="g73"
         transform="matrix(1 0 0 1 141 141)"><path
           id="path71"
           stroke-linecap="round"
           d="m 495.759 410.8 c -1.141 8.244 -3.291 16.165 -6.319 23.635 l 2.102 1.214 c 6.6 3.811 8.862 12.25 5.051 18.851 c -3.811 6.601 -12.25 8.862 -18.851 5.051 l -2.121 -1.225 c -5.036 6.447 -10.847 12.258 -17.294 17.294 l 1.225 2.121 c 3.811 6.601 1.549 15.041 -5.051 18.851 c -6.601 3.811 -15.041 1.549 -18.851 -5.051 l -1.214 -2.103 c -7.471 3.029 -15.392 5.178 -23.635 6.319 v 2.442 c 0 7.621 -6.178 13.8 -13.8 13.8 s -13.8 -6.179 -13.8 -13.8 v -2.442 c -8.243 -1.141 -16.164 -3.29 -23.635 -6.319 l -1.214 2.103 c -3.811 6.6 -12.25 8.862 -18.851 5.051 s -8.862 -12.25 -5.051 -18.851 l 1.225 -2.121 c -6.447 -5.036 -12.258 -10.847 -17.294 -17.294 l -2.121 1.225 c -6.601 3.811 -15.041 1.549 -18.851 -5.051 c -3.811 -6.601 -1.549 -15.041 5.051 -18.851 l 2.102 -1.214 c -3.028 -7.471 -5.177 -15.392 -6.319 -23.635 h -2.443 c -7.622 0 -13.8 -6.178 -13.8 -13.8 s 6.178 -13.8 13.8 -13.8 h 2.441 c 1.141 -8.244 3.291 -16.165 6.319 -23.635 l -2.102 -1.214 c -6.6 -3.811 -8.862 -12.25 -5.051 -18.851 c 3.811 -6.601 12.251 -8.862 18.851 -5.051 l 2.121 1.225 c 5.036 -6.447 10.847 -12.258 17.294 -17.294 l -1.225 -2.121 c -3.811 -6.601 -1.549 -15.041 5.051 -18.851 c 6.601 -3.811 15.041 -1.549 18.851 5.051 l 1.214 2.103 c 7.471 -3.029 15.392 -5.178 23.635 -6.319 v -2.443 c 0 -7.621 6.178 -13.8 13.8 -13.8 s 13.8 6.179 13.8 13.8 v 2.441 c 8.243 1.142 16.164 3.291 23.635 6.319 l 1.214 -2.103 c 3.811 -6.6 12.25 -8.862 18.851 -5.051 s 8.862 12.25 5.051 18.851 l -1.225 2.121 c 6.447 5.036 12.258 10.847 17.294 17.294 l 2.121 -1.225 c 6.601 -3.811 15.041 -1.549 18.851 5.051 c 3.811 6.601 1.549 15.041 -5.051 18.851 l -2.102 1.214 c 3.028 7.471 5.177 15.392 6.319 23.635 h 2.441 c 7.622 0 13.8 6.178 13.8 13.8 s -6.178 13.8 -13.8 13.8 h -2.439 z"
           transform=" translate(-397, -397)"
           style="stroke: none; stroke-width: 1; stroke-dasharray: none; stroke-linecap: butt; stroke-dashoffset: 0; stroke-linejoin: miter; stroke-miterlimit: 4; fill: rgb(155,207,27); fill-rule: nonzero; opacity: 1;" /></g><g
         id="g77"
         transform="matrix(1 0 0 1 141 141)"><path
           id="path75"
           stroke-linecap="round"
           d="m 465.407 397 c 0 37.78 -30.627 68.407 -68.407 68.407 s -68.407 -30.627 -68.407 -68.407 s 30.627 -68.407 68.407 -68.407 s 68.407 30.627 68.407 68.407 z"
           transform=" translate(-397, -397)"
           style="stroke: none; stroke-width: 1; stroke-dasharray: none; stroke-linecap: butt; stroke-dashoffset: 0; stroke-linejoin: miter; stroke-miterlimit: 4; fill: rgb(113,137,46); fill-rule: nonzero; opacity: 1;" /></g><g
         id="g81"
         transform="matrix(1 0 0 1 141 141)"><path
           id="path79"
           stroke-linecap="round"
           d="m 397 321.093 c -41.855 0 -75.907 34.052 -75.907 75.907 s 34.052 75.907 75.907 75.907 s 75.907 -34.052 75.907 -75.907 s -34.052 -75.907 -75.907 -75.907 z m 0 136.814 c -33.584 0 -60.907 -27.323 -60.907 -60.907 s 27.323 -60.907 60.907 -60.907 s 60.907 27.323 60.907 60.907 s -27.323 60.907 -60.907 60.907 z"
           transform=" translate(-397, -397)"
           style="stroke: none; stroke-width: 1; stroke-dasharray: none; stroke-linecap: butt; stroke-dashoffset: 0; stroke-linejoin: miter; stroke-miterlimit: 4; fill: rgb(127,163,47); fill-rule: nonzero; opacity: 1;" /></g><g
         id="g85"
         transform="matrix(1 0 0 1 141 141.86)"><path
           id="path83"
           stroke-linecap="round"
           d="m 389.481 372.803 l -25.053 25.052 l 25.053 25.052 c 2.929 2.929 2.929 7.678 0 10.606 c -2.93 2.929 -7.678 2.929 -10.607 0 l -30.355 -30.355 c -1.406 -1.406 -2.196 -3.314 -2.196 -5.303 s 0.79 -3.897 2.196 -5.303 l 30.355 -30.355 c 1.465 -1.464 3.385 -2.197 5.304 -2.197 s 3.839 0.732 5.304 2.197 c 2.928 2.928 2.928 7.678 -0.001 10.606 z m 56 19.749 l -30.355 -30.355 c -2.93 -2.929 -7.678 -2.929 -10.607 0 s -2.929 7.678 0 10.606 l 25.053 25.052 l -25.053 25.053 c -2.929 2.929 -2.929 7.678 0 10.606 c 1.465 1.464 3.385 2.196 5.304 2.196 s 3.839 -0.732 5.304 -2.196 l 30.355 -30.355 c 1.406 -1.406 2.196 -3.314 2.196 -5.304 s -0.79 -3.897 -2.197 -5.303 z"
           transform=" translate(-397, -397.86)"
           style="stroke: none; stroke-width: 1; stroke-dasharray: none; stroke-linecap: butt; stroke-dashoffset: 0; stroke-linejoin: miter; stroke-miterlimit: 4; fill: rgb(242,251,220); fill-rule: nonzero; opacity: 1;" /></g></g></g><g
     id="logo-name"
     style=""
     transform="matrix(1.65 0 0 1.65 346.84 223.32)"><linearGradient
       y2="33.89999999999999"
       x2="0"
       y1="0"
       x1="0"
       gradientTransform="matrix(1 0 0 1 -26.28 -16.95)"
       gradientUnits="userSpaceOnUse"
       id="SVGID_2"><stop
         id="stop90"
         style="stop-color:rgb(255,255,255);stop-opacity: 1"
         offset="0%" /></linearGradient><text
       id="text95"
       style="stroke: none; stroke-width: 1; stroke-dasharray: none; stroke-linecap: butt; stroke-dashoffset: 0; stroke-linejoin: miter; stroke-miterlimit: 4; fill: #000000; fill-rule: nonzero; opacity: 1; white-space: pre;"
       font-weight="normal"
       font-style="normal"
       font-size="30"
       font-family="Metamorphous"
       xml:space="preserve"><tspan
         id="tspan93"
         y="9.42"
         x="-26.28">FM</tspan></text>
</g></svg>